<svg width="200" height="200" viewBox="0 0 200 200" fill="none" xmlns="http://www.w3.org/2000/svg">
<path fill-rule="evenodd" clip-rule="evenodd" d="M120.386 3.14843C116.289 4.90788 110.702 8.95461 108.282 11.9457C103.626 17.3999 103.626 17.4 96.3638 15.1127C81.839 10.5381 74.0179 16.6962 75.6938 31.4755C76.0663 35.8741 77.1836 41.1525 77.7422 43.2638C79.0457 46.7827 78.4871 47.3105 73.4593 47.3105C70.4798 47.3105 66.9417 46.0789 65.452 44.4954C63.776 42.56 61.3552 42.0322 57.4447 42.736C52.0445 43.6157 51.2996 43.0879 47.0166 35.5223C41.244 25.3175 37.3334 22.6783 31.9332 25.8453C29.8848 27.0769 27.8365 27.9566 27.6502 27.6047C18.5257 13.5292 13.6841 10.0103 8.65625 14.057C6.42166 15.8165 5.86302 19.3354 6.23545 29.7161C6.60788 39.569 6.04923 44.1435 3.81465 47.1346C1.20763 50.6535 1.20763 51.8851 5.49059 63.6734C8.0976 70.7112 11.2633 76.8692 12.753 77.749C14.6151 78.8046 14.2427 80.3881 10.7046 85.4905L13.8703 88.1297L16.2911 90.417L21.5051 89.8892C24.2984 89.5373 26.1605 88.4816 25.6019 87.6019L138.448 87.4259L179.23 86.8981C179.23 88.3056 180.906 89.5373 182.954 89.5373L189.285 88.1297L191.334 83.2033C188.727 80.74 186.678 78.2768 186.678 77.749C186.678 77.2211 189.285 71.7669 192.451 65.6088C198.596 53.8205 198.41 48.5422 191.892 56.1078C189.844 58.571 185.002 65.6088 181.092 71.9428L174.016 83.3792L161.167 83.907L148.132 84.4349L151.484 69.4796C155.022 53.4686 161.353 38.1614 165.45 34.8185C170.105 31.1236 168.802 52.4129 163.401 65.7847C160.981 72.1187 159.305 77.2211 159.863 77.2211C161.912 77.2211 169.919 58.571 169.919 53.8205C169.919 46.9587 174.388 39.393 185.189 27.4288C192.451 19.5113 193.568 17.3999 190.961 17.3999C188.913 17.3999 184.071 20.567 180.161 24.4377C175.878 28.6604 171.781 31.1236 170.105 30.5958C165.264 28.8364 160.981 31.6515 155.022 40.2728L149.063 49.07L144.966 45.5511C142.918 43.6157 139.38 40.9765 137.331 39.569C133.607 37.1058 133.607 37.1058 137.89 30.068C143.104 21.0948 143.476 7.01922 138.635 2.79655C134.166 -1.07424 129.883 -0.8983 120.386 3.14843ZM126.344 33.5869C130.441 32.8831 135.283 23.558 136.4 14.2329C137.704 3.85222 137.145 3.50033 124.296 7.89894C114.054 11.4178 110.33 16.1683 110.33 26.0212V34.1147L117.406 33.9388C121.13 33.9388 125.227 33.7628 126.344 33.5869ZM45.1545 47.3105C43.851 42.9119 41.0578 36.226 39.0094 32.3553L33.2367 37.4576L31.5608 49.7738L21.5051 31.2996L16.4773 22.1505L12.1943 25.4934C12.753 34.6425 14.4289 40.8006 18.3395 48.3662C21.1327 53.9964 23.9259 59.4507 24.2984 60.5064C24.857 61.3861 21.3189 58.7469 16.4773 54.5243C11.8219 50.1257 7.35274 47.1346 6.60788 47.8384C3.62843 50.6535 22.9948 80.0363 26.5329 78.1009C27.6502 77.3971 29.3262 79.1565 30.2573 81.7957C33.6091 89.8892 34.354 85.1386 31.5608 74.7579C28.3951 63.8493 30.071 61.3861 33.7953 71.239C35.0989 74.582 37.5197 77.9249 39.1956 78.4527C41.0578 79.1565 43.1061 80.3881 43.851 81.4438C44.5958 82.4995 44.7821 80.2122 44.2234 76.3414L42.9199 69.3036L46.8304 75.1098C49.065 78.2768 50.741 81.6198 50.741 82.4995C50.741 83.5552 53.348 84.2589 56.3274 84.2589C62.6588 84.2589 62.845 83.3792 59.6793 72.9985C56.5136 62.6177 55.2101 61.9139 53.5342 70.5352C52.4169 76.1655 51.8582 77.0452 51.2996 74.0541C50.741 71.7669 53.1618 64.905 56.5136 58.2191C59.8655 51.7092 62.1001 46.4308 62.6588 45.5511C64.1485 42.0322 55.7688 50.1257 52.4169 55.0521C49.9961 58.747 48.8788 59.4507 48.3202 57.6913C47.7615 56.2837 46.458 51.7092 45.1545 47.3105ZM105.488 30.2439C103.44 27.6047 99.7156 24.2618 97.1086 22.5023C94.6878 20.9188 90.0324 19.1594 86.8668 18.6316H81.2803V28.3085C81.6527 37.9855 82.2114 39.393 87.6116 43.9676C90.9635 46.7827 95.2465 49.07 97.2948 49.07C99.3432 49.07 101.019 49.9497 101.019 51.1813C101.019 52.237 101.578 52.7648 102.136 52.0611C102.695 51.5332 100.088 46.2549 96.3638 40.4487C92.6395 34.6425 89.8462 29.0123 90.2187 27.7807C90.5911 26.5491 94.5016 32.0034 98.9708 39.9209C105.861 52.7648 106.606 55.0521 104.93 60.5064C103.626 65.081 103.812 67.0163 105.675 68.4239C107.537 70.0074 108.654 69.4796 110.33 66.6645C112.006 63.6734 113.496 63.1456 117.779 64.0253C123.551 65.2569 132.117 62.0899 140.124 55.9318L144.78 52.237L139.566 48.0143C132.49 42.2081 122.434 42.3841 113.123 48.3662C107.35 52.0611 106.419 52.237 107.537 49.5978C111.261 40.8006 111.261 40.9765 107.909 43.4398C105.302 45.5511 105.116 45.3752 107.164 40.4487C109.026 35.8741 108.654 34.4666 105.488 30.2439ZM82.5838 80.3881C76.6249 82.3235 75.6938 81.4438 68.2452 63.1456C65.0796 55.404 60.0517 48.0143 62.6588 55.0521C63.4036 56.9875 64.7071 61.914 65.8244 66.3126C66.7555 70.5352 68.8039 76.3414 70.4798 79.1565L73.273 84.2589H102.509C128.393 84.083 131.372 83.907 128.207 81.6198C124.855 79.1565 124.855 78.9806 129.696 77.2211C132.49 76.3414 136.028 75.4617 137.517 75.4617C139.007 75.4617 140.124 74.2301 140.124 72.8225C140.124 69.6555 139.38 69.6555 134.91 71.9428C133.234 72.8225 126.903 74.406 121.13 75.4617C115.172 76.6933 109.585 78.6287 108.84 80.2122C107.35 82.4995 106.978 82.1476 105.861 78.2768C105.116 75.1098 101.95 72.6466 94.6878 69.3036C83.7011 64.3772 79.6044 63.6734 85.0046 67.5442C87.053 68.9517 87.7978 70.1834 86.6806 70.1834C84.2598 70.1834 78.3009 64.0253 79.7906 62.7937C80.3492 62.2658 85.0046 63.3215 90.2187 65.081C101.019 68.7758 103.068 68.248 98.2259 63.1456C91.3359 55.9318 69.3625 49.07 69.3625 54.1724C69.3625 55.0521 71.0385 59.2748 72.9006 63.6734C75.3214 68.9517 78.1146 72.1187 82.2114 73.7022C89.4738 76.5174 89.4738 78.1009 82.5838 80.3881ZM141.055 68.4239C143.29 70.1834 144.035 70.0074 144.966 67.8961C145.525 66.3126 145.711 63.8493 145.338 62.0899C144.78 59.6267 144.407 59.6267 141.428 62.6177C138.448 65.7847 138.448 66.4885 141.055 68.4239Z" fill="#FFED49"/>
<path d="M122.992 18.8076C116.289 25.4935 113.123 31.4756 116.289 31.4756C118.709 31.2996 129.696 15.8165 128.393 14.5849C128.02 14.233 125.599 16.1684 122.992 18.8076Z" fill="#FFED49"/>
<path d="M120.572 54.3486C110.888 58.5713 106.605 62.0902 106.605 65.0812C106.605 66.6647 107.909 66.1369 109.957 63.6737C111.633 61.5623 117.778 57.8675 123.365 55.4043C128.951 53.117 132.303 51.0057 130.813 51.0057C129.324 51.0057 124.668 52.4132 120.572 54.3486Z" fill="#FFED49"/>
<path d="M192.824 26.197C175.506 61.0341 173.643 66.6643 181.837 58.043C183.699 56.1076 187.61 53.6444 190.589 52.5887C195.058 50.8293 195.617 49.9496 193.941 47.8382C192.265 46.0788 192.451 43.0877 195.058 35.1702C199.527 21.2706 198.038 15.4644 192.824 26.197Z" fill="#FFED49"/>
<rect y="85.8516" width="200" height="18.705" rx="5" fill="#D9D9D9"/>
<rect x="8.62939" y="90.6475" width="182.741" height="9.59233" rx="4.79616" fill="#252525"/>
<rect y="114.629" width="200" height="9.59233" rx="4.79616" fill="#D9D9D9"/>
<rect y="162.11" width="200" height="9.59233" rx="4.79616" fill="#D9D9D9"/>
<rect y="133.334" width="200" height="18.705" rx="5" fill="#D9D9D9"/>
<rect y="181.295" width="200" height="18.705" rx="5" fill="#D9D9D9"/>
<rect x="8.62939" y="138.13" width="182.741" height="9.59233" rx="4.79616" fill="#252525"/>
<rect x="8.62939" y="185.611" width="182.741" height="9.59233" rx="4.79616" fill="#252525"/>
</svg>
