<svg width="301" height="300" viewBox="0 0 301 300" fill="none" xmlns="http://www.w3.org/2000/svg">
<path fill-rule="evenodd" clip-rule="evenodd" d="M181.106 4.72238C174.961 7.36156 166.581 13.4317 162.95 17.9182C155.967 26.0997 155.967 26.0997 145.073 22.6688C123.286 15.8069 111.555 25.044 114.069 47.213C114.627 53.811 116.303 61.7285 117.141 64.8955C119.096 70.1738 118.258 70.9656 110.717 70.9656C106.248 70.9656 100.94 69.1182 98.7058 66.7429C96.1919 63.8398 92.5607 63.0481 86.6949 64.1037C78.5945 65.4233 77.4772 64.6316 71.0528 53.2831C62.3938 37.9759 56.528 34.0172 48.4276 38.7677C45.3551 40.6151 42.2825 41.9347 42.0032 41.4069C28.3163 20.2935 21.0539 15.0152 13.5122 21.0853C10.1603 23.7244 9.32236 29.0028 9.88101 44.5739C10.4397 59.3532 9.60168 66.2151 6.2498 70.7017C2.33928 75.98 2.33928 77.8274 8.76371 95.5099C12.6742 106.067 17.4227 115.304 19.6573 116.623C22.4506 118.207 21.8919 120.582 16.5848 128.236L21.3333 132.194L24.9645 135.625L32.7855 134.833C36.9754 134.306 39.7686 132.722 38.9306 131.403L208.201 131.139L269.372 130.347C269.372 132.458 271.886 134.306 274.959 134.306L284.456 132.194L287.528 124.805C283.618 121.11 280.545 117.415 280.545 116.623C280.545 115.831 284.456 107.65 289.204 98.4129C298.422 80.7305 298.143 72.813 288.366 84.1614C285.294 87.8563 278.031 98.4129 272.166 107.914L261.551 125.069L242.278 125.86L222.725 126.652L227.753 104.219C233.06 80.2027 242.557 57.2419 248.702 52.2275C255.686 46.6852 253.73 78.6192 245.63 98.6769C241.999 108.178 239.485 115.831 240.323 115.831C243.395 115.831 255.406 87.8563 255.406 80.7305C255.406 70.4377 262.11 59.0893 278.311 41.1429C289.204 29.2667 290.88 26.0997 286.97 26.0997C283.897 26.0997 276.635 30.8502 270.769 36.6564C264.345 42.9904 258.199 46.6852 255.685 45.8934C248.423 43.2543 241.999 47.477 233.06 60.4089L224.122 73.6047L217.977 68.3264C214.904 65.4233 209.597 61.4646 206.525 59.3532C200.938 55.6584 200.938 55.6584 207.363 45.1017C215.184 31.6419 215.742 10.5286 208.48 4.19456C201.776 -1.61162 195.352 -1.3477 181.106 4.72238ZM190.045 50.3801C196.19 49.3244 203.452 35.3368 205.128 21.3492C207.083 5.77808 206.245 5.25023 186.972 11.8482C171.609 17.1265 166.023 24.2523 166.023 39.0316V51.1718L176.637 50.9079C182.223 50.9079 188.369 50.644 190.045 50.3801ZM68.2596 70.9656C66.3043 64.3676 62.1145 54.3388 59.0419 48.5326L50.3829 56.1862L47.869 74.6604L32.7855 46.9491L25.2438 33.2254L18.8194 38.2398C19.6573 51.9635 22.1712 61.2006 28.037 72.5491C32.2269 80.9944 36.4167 89.1758 36.9754 90.7593C37.8133 92.0789 32.5062 88.1202 25.2438 81.7862C18.2607 75.1882 11.5569 70.7017 10.4397 71.7573C5.97048 75.98 35.0201 120.054 40.3272 117.151C42.0032 116.095 44.5171 118.735 45.9137 122.693C50.9415 134.833 52.0588 127.708 47.869 112.137C43.1205 95.7738 45.6344 92.0789 51.2209 106.858C53.1761 111.873 56.8073 116.887 59.3212 117.679C62.1145 118.735 65.187 120.582 66.3043 122.165C67.4216 123.749 67.7009 120.318 66.863 114.512L64.9077 103.955L70.7735 112.664C74.1254 117.415 76.6393 122.429 76.6393 123.749C76.6393 125.332 80.5498 126.388 85.019 126.388C94.516 126.388 94.7953 125.069 90.0468 109.497C85.2983 93.9263 83.343 92.8707 80.8291 105.803C79.1532 114.248 78.3152 115.568 77.4772 111.081C76.6393 107.65 80.2705 97.3573 85.2983 87.3284C90.3261 77.5635 93.678 69.646 94.516 68.3264C96.7505 63.0481 84.181 75.1882 79.1532 82.5779C75.522 88.1202 73.846 89.1758 73.0081 86.5367C72.1701 84.4253 70.2148 77.5635 68.2596 70.9656ZM158.76 45.3656C155.688 41.4069 150.101 36.3924 146.191 33.7533C142.56 31.378 135.576 28.7388 130.828 27.9471H122.448V42.4625C123.007 56.978 123.845 59.0893 131.945 65.9511C136.973 70.1738 143.398 73.6047 146.47 73.6047C149.543 73.6047 152.057 74.9243 152.057 76.7717C152.057 78.3552 152.895 79.147 153.732 78.0913C154.57 77.2996 150.66 69.3821 145.073 60.6728C139.487 51.9636 135.297 43.5182 135.856 41.6708C136.414 39.8233 142.28 48.0048 148.984 59.8811C159.319 79.147 160.436 82.5779 157.922 90.7593C155.967 97.6212 156.246 100.524 159.04 102.636C161.833 105.011 163.509 104.219 166.023 99.9964C168.537 95.5099 170.771 94.7181 177.196 96.0377C185.855 97.8851 198.704 93.1346 210.714 83.8975L217.698 78.3553L209.876 72.0212C199.262 63.312 184.179 63.5759 170.213 72.5491C161.554 78.0913 160.157 78.3553 161.833 74.3965C167.419 61.2006 167.419 61.4646 162.392 65.1594C158.481 68.3264 158.202 68.0625 161.274 60.6728C164.067 53.811 163.509 51.6996 158.76 45.3656ZM124.404 120.582C115.465 123.485 114.069 122.165 102.896 94.7181C98.1472 83.1058 90.6054 72.0212 94.516 82.5779C95.6332 85.481 97.5885 92.8707 99.2645 99.4686C100.661 105.803 103.734 114.512 106.248 118.735L110.437 126.388H154.291C193.117 126.124 197.586 125.86 192.838 122.429C187.81 118.735 187.81 118.471 195.072 115.831C199.262 114.512 204.569 113.192 206.804 113.192C209.039 113.192 210.714 111.345 210.714 109.234C210.714 104.483 209.597 104.483 202.893 107.914C200.379 109.234 190.882 111.609 182.223 113.192C173.285 115.04 164.905 117.943 163.788 120.318C161.554 123.749 160.995 123.221 159.319 117.415C158.202 112.664 153.453 108.97 142.56 103.955C126.079 96.5655 119.934 95.5099 128.035 101.316C131.107 103.427 132.225 105.275 130.549 105.275C126.917 105.275 117.979 96.0377 120.214 94.1903C121.052 93.3985 128.035 94.982 135.856 97.6212C152.057 103.163 155.129 102.372 147.867 94.7181C137.532 83.8975 104.572 73.6047 104.572 81.2583C104.572 82.5779 107.086 88.9119 109.879 95.5099C113.51 103.427 117.7 108.178 123.845 110.553C134.739 114.776 134.739 117.151 124.404 120.582ZM212.111 102.636C215.463 105.275 216.58 105.011 217.977 101.844C218.815 99.4686 219.094 95.7738 218.536 93.1346C217.698 89.4398 217.139 89.4398 212.67 93.9263C208.201 98.6769 208.201 99.7325 212.111 102.636Z" fill="#FFED49"/>
<path d="M185.017 28.211C174.961 38.2398 170.213 47.213 174.961 47.213C178.592 46.9491 195.072 23.7244 193.117 21.877C192.559 21.3491 188.927 24.2522 185.017 28.211Z" fill="#FFED49"/>
<path d="M181.385 81.5222C166.86 87.8562 160.436 93.1345 160.436 97.6211C160.436 99.9964 162.391 99.2046 165.464 95.5098C167.978 92.3428 177.195 86.8005 185.575 83.1057C193.955 79.6747 198.983 76.5077 196.748 76.5077C194.513 76.5077 187.53 78.6191 181.385 81.5222Z" fill="#FFED49"/>
<path d="M289.763 39.2954C263.786 91.551 260.992 99.9963 273.283 87.0644C276.076 84.1613 281.942 80.4665 286.411 78.883C293.115 76.2438 293.953 74.9242 291.439 71.7572C288.925 69.1181 289.204 64.6315 293.115 52.7552C299.818 31.9058 297.584 23.1965 289.763 39.2954Z" fill="#FFED49"/>
<rect x="0.527344" y="128.777" width="300" height="28.0576" rx="10" fill="#D9D9D9"/>
<rect x="13.4717" y="135.971" width="274.112" height="14.3885" rx="7.19424" fill="black"/>
<rect x="0.527344" y="171.943" width="300" height="14.3885" rx="7.19424" fill="#D9D9D9"/>
<rect x="0.527344" y="243.166" width="300" height="14.3885" rx="7.19424" fill="#D9D9D9"/>
<rect x="0.527344" y="200" width="300" height="28.0576" rx="10" fill="#D9D9D9"/>
<rect x="0.527344" y="271.942" width="300" height="28.0576" rx="10" fill="#D9D9D9"/>
<rect x="13.4717" y="207.194" width="274.112" height="14.3885" rx="7.19424" fill="black"/>
<rect x="13.4717" y="278.417" width="274.112" height="14.3885" rx="7.19424" fill="black"/>
</svg>
