<svg width="152" height="279" viewBox="0 0 152 279" fill="none" xmlns="http://www.w3.org/2000/svg">
<path d="M43.1293 31.184L43.1099 31.1673L43.0909 31.1503C35.053 23.965 24.2957 16.7757 15.3656 11.4271C11.4198 9.06381 7.86097 7.07791 5.0907 5.62766C5.2055 5.87213 5.32399 6.12311 5.4461 6.38046C7.40817 10.5156 10.2412 16.1577 13.4535 22.2655C19.9041 34.5307 27.7685 48.4529 33.1225 55.821C41.0531 66.7351 50.1271 77.2578 58.0233 85.0264C61.9761 88.9155 65.5845 92.0656 68.5698 94.2233C70.0642 95.3034 71.3498 96.0964 72.4047 96.6092C73.5109 97.1469 74.1376 97.2641 74.3816 97.2641C74.6371 97.2641 75.3181 97.0936 76.5052 96.4599L74.7867 91.0807L67.622 68.654C67.6217 68.653 67.6213 68.6519 67.621 68.6508C62.2796 52.0657 56.2166 42.4406 43.1293 31.184ZM79.9181 90.9438L78.8563 95.0027C80.45 93.9042 82.2961 92.4465 84.3483 90.666C89.4439 86.2451 95.5928 80.0247 101.952 72.9178C114.69 58.6824 128.031 41.1614 135.269 27.8789L135.283 27.8533L135.298 27.8279C139.485 20.5295 143.036 13.724 145.427 8.71609C145.989 7.53967 146.482 6.47171 146.903 5.52655C145.885 5.99197 144.726 6.54697 143.443 7.18472C138.454 9.66373 131.768 13.3049 124.647 17.5323L124.646 17.5331C110.926 25.6665 103.362 30.9415 98.0293 38.1451C92.681 45.3691 89.4094 54.7578 84.9765 71.6065C84.9763 71.6073 84.9761 71.6081 84.9759 71.6089L79.9181 90.9438ZM67.5547 130.674L67.5447 130.628L67.5364 130.582C66.3417 124.006 61.8568 113.143 57.8441 107.249C56.0783 104.695 51.7149 100.543 45.825 95.6785C40.0207 90.8851 32.9882 85.6042 26.1468 80.8303C19.2959 76.0498 12.6983 71.8208 7.75983 69.109C5.77306 68.018 4.13316 67.2165 2.89289 66.7188C2.96529 66.988 3.05845 67.2862 3.17649 67.6162C3.73263 69.1708 4.70575 71.0679 6.04749 73.3876C6.98336 75.0055 8.11496 76.8505 9.35804 78.8771C11.5297 82.4178 14.0417 86.5132 16.4446 90.9223C25.4179 107.388 37.4373 124.65 48.3499 137.775C53.8092 144.342 58.9429 149.814 63.237 153.619C65.3878 155.525 67.2705 156.961 68.8333 157.905C70.4793 158.9 71.4463 159.147 71.8522 159.147C72.625 159.147 73.9594 158.794 75.925 157.763C77.8289 156.765 80.0793 155.263 82.6091 153.297C87.6635 149.37 93.6177 143.761 99.8325 137.125C112.262 123.853 125.513 106.71 134.456 91.2563C138.859 83.5613 142.622 76.4623 145.171 71.212C145.855 69.8043 146.445 68.5425 146.933 67.4465C145.955 67.9031 144.843 68.4438 143.611 69.0628C138.668 71.5451 131.974 75.1905 124.627 79.4271C111.242 87.295 102.762 93.8437 96.8668 101.773C90.9898 109.678 87.5092 119.191 84.5924 133.327C83.84 137.362 82.9155 140.556 81.792 142.746C81.2331 143.836 80.5265 144.875 79.5944 145.611C78.5846 146.408 77.2541 146.873 75.7865 146.537C74.4594 146.232 73.4587 145.367 72.7384 144.504C71.9965 143.615 71.3468 142.485 70.7647 141.21C69.5977 138.654 68.5215 135.109 67.5547 130.674ZM41.8956 155.75L41.8879 155.744L41.8802 155.737C33.7499 148.852 22.9772 140.886 14.2435 135.032C10.1458 132.286 6.553 130.042 3.92155 128.599C4.56616 130.335 5.47716 132.451 6.62114 134.874C9.09512 140.115 12.5869 146.645 16.6217 153.616C24.7005 167.573 34.8457 183.108 43.1574 193.403L43.1598 193.406C50.0194 201.926 55.341 208.219 59.8929 212.512C64.4693 216.829 67.9386 218.798 71.0493 219.217C74.0603 219.622 77.3073 218.643 81.6409 215.624C86.0067 212.582 91.1161 207.726 97.7675 200.946L97.7794 200.934L97.7914 200.922C107.707 191.066 121.708 172.302 132.428 155.909C137.78 147.725 142.248 140.234 144.948 134.832C145.874 132.979 146.552 131.449 146.99 130.263C146.714 130.356 146.415 130.461 146.093 130.58C144.362 131.221 142.223 132.165 139.789 133.353C134.929 135.725 129.047 138.994 123.193 142.543C117.34 146.091 111.559 149.891 106.895 153.314C104.562 155.026 102.534 156.626 100.925 158.039C99.2816 159.482 98.203 160.62 97.6558 161.409L97.6485 161.42C95.9323 163.869 93.8103 168.182 91.7199 173.36C89.6546 178.476 87.6908 184.259 86.2452 189.557C85.0623 194.482 83.707 198.673 82.3182 201.969C80.9605 205.192 79.4633 207.823 77.8844 209.369C77.1192 210.117 75.9801 210.963 74.525 211.051C72.8105 211.154 71.5564 210.185 70.8235 209.09C70.1492 208.083 69.7677 206.8 69.5362 205.469C69.2965 204.091 69.1796 202.429 69.1796 200.497C69.1796 198.074 68.4136 194.78 66.9035 190.887C65.4102 187.037 63.2594 182.778 60.6599 178.48C55.4448 169.859 48.5645 161.312 41.8956 155.75ZM76.7981 263.908L74.2361 269.332L71.9168 263.8L65.6045 248.742C61.4428 239.391 58.1008 233.4 52.7368 227.421C47.3051 221.367 39.717 215.229 26.862 205.754C21.223 201.731 15.703 198.101 11.3516 195.487C9.23498 194.216 7.42664 193.204 6.03244 192.507C6.4442 193.826 7.13065 195.553 8.10014 197.655C10.8035 203.517 15.3588 211.565 20.7335 220.104C26.0986 228.628 32.2316 237.565 38.0579 245.197C43.928 252.886 49.3475 259.064 53.2902 262.23L53.3045 262.241L53.3188 262.253L69.4404 275.565H81.1214L99.9271 257.749C108.591 249.227 121.358 232.661 131.524 218.034C136.597 210.735 140.969 203.996 143.814 199.07C144.796 197.372 145.569 195.935 146.123 194.789C145.933 194.818 145.735 194.852 145.527 194.889C143.791 195.204 141.631 195.766 139.148 196.598C134.187 198.26 128.071 200.955 121.693 204.73C111.594 210.714 105.447 214.908 100.663 219.937C95.9044 224.94 92.3615 230.912 87.7608 240.698L87.7588 240.702L76.7981 263.908Z" stroke="#FFED49" stroke-width="5.34513"/>
</svg>
