<svg width="300" height="300" viewBox="0 0 300 300" fill="none" xmlns="http://www.w3.org/2000/svg">
<path d="M115.709 165.75L115.701 165.744L115.694 165.737C107.563 158.852 96.7907 150.886 88.057 145.032C83.9593 142.286 80.3665 140.042 77.735 138.599C78.3796 140.335 79.2906 142.451 80.4346 144.874C82.9086 150.115 86.4004 156.645 90.4352 163.616C98.5139 177.573 108.659 193.108 116.971 203.403L116.973 203.406C123.833 211.926 129.154 218.219 133.706 222.512C138.283 226.829 141.752 228.798 144.863 229.217C147.874 229.622 151.121 228.643 155.454 225.624C159.82 222.582 164.93 217.726 171.581 210.946L171.593 210.934L171.605 210.922C181.521 201.066 195.521 182.302 206.242 165.909C211.594 157.725 216.062 150.234 218.761 144.832C219.688 142.979 220.366 141.449 220.804 140.263C220.528 140.356 220.229 140.461 219.906 140.58C218.176 141.221 216.037 142.165 213.603 143.353C208.742 145.725 202.861 148.994 197.006 152.543C191.153 156.091 185.373 159.891 180.709 163.314C178.376 165.026 176.347 166.626 174.738 168.039C173.095 169.482 172.017 170.62 171.469 171.409L171.462 171.42C169.746 173.869 167.624 178.182 165.533 183.36C163.468 188.476 161.504 194.259 160.059 199.557C158.876 204.482 157.521 208.673 156.132 211.969C154.774 215.192 153.277 217.823 151.698 219.369C150.933 220.117 149.794 220.963 148.339 221.051C146.624 221.154 145.37 220.185 144.637 219.09C143.963 218.083 143.581 216.8 143.35 215.469C143.11 214.091 142.993 212.429 142.993 210.497C142.993 208.074 142.227 204.78 140.717 200.887C139.224 197.037 137.073 192.778 134.473 188.48C129.258 179.859 122.378 171.312 115.709 165.75ZM141.368 140.674L141.358 140.628L141.35 140.582C140.155 134.006 135.67 123.143 131.658 117.249C129.892 114.695 125.528 110.543 119.638 105.679C113.834 100.885 106.802 95.6042 99.9603 90.8303C93.1094 86.0498 86.5118 81.8208 81.5733 79.109C79.5865 78.018 77.9466 77.2165 76.7064 76.7188C76.7788 76.988 76.8719 77.2862 76.99 77.6162C77.5461 79.1708 78.5192 81.0679 79.861 83.3876C80.7968 85.0055 81.9284 86.8505 83.1715 88.8771C85.3432 92.4178 87.8552 96.5132 90.2581 100.922C99.2314 117.388 111.251 134.65 122.163 147.775C127.623 154.342 132.756 159.814 137.051 163.619C139.201 165.525 141.084 166.961 142.647 167.905C144.293 168.9 145.26 169.147 145.666 169.147C146.439 169.147 147.773 168.794 149.738 167.763C151.642 166.765 153.893 165.263 156.423 163.297C161.477 159.37 167.431 153.761 173.646 147.125C186.075 133.853 199.327 116.71 208.269 101.256C212.673 93.5613 216.436 86.4623 218.985 81.212C219.668 79.8043 220.258 78.5425 220.747 77.4465C219.769 77.9031 218.657 78.4438 217.424 79.0628C212.481 81.5451 205.788 85.1903 198.441 89.4269C185.056 97.2949 176.575 103.844 170.68 111.773C164.803 119.678 161.323 129.191 158.406 143.327C157.653 147.362 156.729 150.556 155.605 152.746C155.047 153.836 154.34 154.875 153.408 155.611C152.398 156.408 151.068 156.873 149.6 156.537C148.273 156.232 147.272 155.367 146.552 154.504C145.81 153.615 145.16 152.485 144.578 151.21C143.411 148.654 142.335 145.109 141.368 140.674ZM116.943 41.184L116.923 41.1673L116.904 41.1503C108.867 33.965 98.1092 26.7757 89.1791 21.4271C85.2333 19.0638 81.6744 17.0779 78.9042 15.6277C79.019 15.8721 79.1375 16.1231 79.2596 16.3805C81.2216 20.5156 84.0547 26.1577 87.267 32.2655C93.7176 44.5307 101.582 58.4529 106.936 65.821C114.867 76.7351 123.941 87.2578 131.837 95.0264C135.79 98.9155 139.398 102.066 142.383 104.223C143.878 105.303 145.163 106.096 146.218 106.609C147.324 107.147 147.951 107.264 148.195 107.264C148.451 107.264 149.132 107.094 150.319 106.46L148.6 101.081L141.435 78.654C141.435 78.653 141.435 78.6519 141.434 78.6508C136.093 62.0657 130.03 52.4406 116.943 41.184ZM153.732 100.944L152.67 105.003C154.263 103.904 156.11 102.446 158.162 100.666C163.257 96.2451 169.406 90.0247 175.766 82.9178C188.503 68.6824 201.844 51.1614 209.083 37.8789L209.097 37.8533L209.111 37.8279C213.298 30.5295 216.85 23.724 219.241 18.7161C219.803 17.5397 220.296 16.4717 220.716 15.5266C219.699 15.992 218.54 16.547 217.256 17.1847C212.268 19.6638 205.582 23.3049 198.461 27.5323L198.459 27.5331C184.739 35.6665 177.176 40.9415 171.843 48.1451C166.494 55.3691 163.223 64.7578 158.79 81.6065C158.79 81.6073 158.79 81.6081 158.789 81.6089L153.732 100.944ZM150.612 273.908L148.05 279.332L145.73 273.8L139.418 258.742C135.256 249.391 131.914 243.4 126.55 237.421C121.119 231.367 113.531 225.229 100.676 215.754C95.0365 211.731 89.5165 208.101 85.1651 205.487C83.0485 204.216 81.2401 203.204 79.8459 202.507C80.2577 203.826 80.9441 205.553 81.9136 207.655C84.617 213.517 89.1723 221.565 94.5469 230.104C99.9121 238.628 106.045 247.565 111.871 255.197C117.741 262.886 123.161 269.064 127.104 272.23L127.118 272.241L127.132 272.253L143.254 285.565H154.935L173.741 267.749C182.405 259.227 195.171 242.661 205.337 228.034C210.411 220.735 214.782 213.996 217.628 209.07C218.609 207.372 219.383 205.935 219.937 204.789C219.747 204.818 219.548 204.852 219.34 204.889C217.605 205.204 215.444 205.766 212.962 206.598C208 208.26 201.884 210.955 195.507 214.73C185.408 220.714 179.26 224.908 174.477 229.937C169.718 234.94 166.175 240.912 161.574 250.698L161.572 250.702L150.612 273.908Z" fill="#FFED49" stroke="#FFED49" stroke-width="5.34513"/>
</svg>
