<svg width="152" height="279" viewBox="0 0 152 279" fill="none" xmlns="http://www.w3.org/2000/svg">
<path d="M43.943 31.184L43.9236 31.1673L43.9046 31.1503C35.8667 23.965 25.1094 16.7757 16.1793 11.4271C12.2335 9.06381 8.67466 7.07791 5.9044 5.62766C6.01919 5.87213 6.13768 6.12311 6.25979 6.38046C8.22186 10.5156 11.0549 16.1577 14.2672 22.2655C20.7178 34.5307 28.5822 48.4529 33.9362 55.821C41.8668 66.7351 50.9408 77.2578 58.837 85.0264C62.7898 88.9155 66.3982 92.0656 69.3835 94.2233C70.8779 95.3034 72.1635 96.0964 73.2184 96.6092C74.3246 97.1469 74.9513 97.2641 75.1952 97.2641C75.4508 97.2641 76.1318 97.0936 77.3189 96.4599L75.6004 91.0807L68.4357 68.654C68.4354 68.653 68.435 68.6519 68.4347 68.6508C63.0933 52.0657 57.0303 42.4406 43.943 31.184ZM80.7318 90.9438L79.67 95.0027C81.2637 93.9042 83.1098 92.4465 85.162 90.666C90.2576 86.2451 96.4065 80.0247 102.766 72.9178C115.504 58.6824 128.844 41.1614 136.083 27.8789L136.097 27.8533L136.112 27.8279C140.299 20.5295 143.85 13.724 146.241 8.71609C146.803 7.53967 147.296 6.47171 147.716 5.52655C146.699 5.99197 145.54 6.54697 144.256 7.18472C139.268 9.66373 132.582 13.3049 125.461 17.5323L125.46 17.5331C111.74 25.6665 104.176 30.9415 98.843 38.1451C93.4947 45.3691 90.2231 54.7578 85.7902 71.6065C85.79 71.6073 85.7898 71.6081 85.7896 71.6089L80.7318 90.9438ZM68.3684 130.674L68.3584 130.628L68.3501 130.582C67.1554 124.006 62.6705 113.143 58.6578 107.249C56.892 104.695 52.5286 100.543 46.6386 95.6785C40.8344 90.8851 33.8019 85.6042 26.9605 80.8303C20.1096 76.0498 13.512 71.8208 8.57352 69.109C6.58675 68.018 4.94685 67.2165 3.70658 66.7188C3.77898 66.988 3.87214 67.2862 3.99018 67.6162C4.54632 69.1708 5.51944 71.0679 6.86119 73.3876C7.79705 75.0055 8.92865 76.8505 10.1717 78.8771C12.3434 82.4178 14.8554 86.5132 17.2583 90.9223C26.2316 107.388 38.251 124.65 49.1636 137.775C54.6229 144.342 59.7566 149.814 64.0507 153.619C66.2015 155.525 68.0842 156.961 69.647 157.905C71.293 158.9 72.26 159.147 72.6659 159.147C73.4387 159.147 74.7731 158.794 76.7387 157.763C78.6426 156.765 80.893 155.263 83.4228 153.297C88.4772 149.37 94.4314 143.761 100.646 137.125C113.075 123.853 126.327 106.71 135.27 91.2563C139.673 83.5613 143.436 76.4623 145.985 71.212C146.669 69.8043 147.258 68.5425 147.747 67.4465C146.769 67.9031 145.657 68.4438 144.425 69.0628C139.482 71.5451 132.788 75.1905 125.441 79.4271C112.056 87.295 103.575 93.8437 97.6805 101.773C91.8035 109.678 88.3229 119.191 85.4061 133.327C84.6537 137.362 83.7292 140.556 82.6057 142.746C82.0468 143.836 81.3402 144.875 80.4081 145.611C79.3983 146.408 78.0678 146.873 76.6002 146.537C75.2731 146.232 74.2724 145.367 73.5521 144.504C72.8102 143.615 72.1605 142.485 71.5784 141.21C70.4114 138.654 69.3352 135.109 68.3684 130.674ZM42.7093 155.75L42.7016 155.744L42.6939 155.737C34.5636 148.852 23.7909 140.886 15.0572 135.032C10.9595 132.286 7.36669 130.042 4.73524 128.599C5.37985 130.335 6.29085 132.451 7.43483 134.874C9.90881 140.115 13.4006 146.645 17.4354 153.616C25.5142 167.573 35.6594 183.108 43.9711 193.403L43.9734 193.406C50.8331 201.926 56.1547 208.219 60.7065 212.512C65.2829 216.829 68.7523 218.798 71.863 219.217C74.874 219.622 78.121 218.643 82.4546 215.624C86.8204 212.582 91.9297 207.726 98.5812 200.946L98.5931 200.934L98.6051 200.922C108.521 191.066 122.521 172.302 133.242 155.909C138.594 147.725 143.062 140.234 145.762 134.832C146.688 132.979 147.366 131.449 147.804 130.263C147.528 130.356 147.229 130.461 146.906 130.58C145.176 131.221 143.037 132.165 140.603 133.353C135.742 135.725 129.861 138.994 124.007 142.543C118.153 146.091 112.373 149.891 107.709 153.314C105.376 155.026 103.347 156.626 101.739 158.039C100.095 159.482 99.0167 160.62 98.4695 161.409L98.4622 161.42C96.746 163.869 94.624 168.182 92.5336 173.36C90.4683 178.476 88.5045 184.259 87.0589 189.557C85.876 194.482 84.5207 198.673 83.1319 201.969C81.7742 205.192 80.277 207.823 78.6981 209.369C77.9329 210.117 76.7938 210.963 75.3387 211.051C73.6242 211.154 72.3701 210.185 71.6372 209.09C70.9629 208.083 70.5814 206.8 70.3499 205.469C70.1102 204.091 69.9933 202.429 69.9933 200.497C69.9933 198.074 69.2272 194.78 67.7172 190.887C66.2239 187.037 64.0731 182.778 61.4735 178.48C56.2585 169.859 49.3782 161.312 42.7093 155.75ZM77.6118 263.908L75.0498 269.332L72.7305 263.8L66.4182 248.742C62.2565 239.391 58.9145 233.4 53.5505 227.421C48.1188 221.367 40.5307 215.229 27.6757 205.754C22.0367 201.731 16.5167 198.101 12.1653 195.487C10.0487 194.216 8.24033 193.204 6.84613 192.507C7.25789 193.826 7.94434 195.553 8.91383 197.655C11.6172 203.517 16.1725 211.565 21.5472 220.104C26.9123 228.628 33.0453 237.565 38.8716 245.197C44.7416 252.886 50.1612 259.064 54.1039 262.23L54.1182 262.241L54.1324 262.253L70.2541 275.565H81.9351L100.741 257.749C109.405 249.227 122.172 232.661 132.338 218.034C137.411 210.735 141.782 203.996 144.628 199.07C145.609 197.372 146.383 195.935 146.937 194.789C146.747 194.818 146.548 194.852 146.34 194.889C144.605 195.204 142.444 195.766 139.962 196.598C135 198.26 128.885 200.955 122.507 204.73C112.408 210.714 106.261 214.908 101.477 219.937C96.7181 224.94 93.1752 230.912 88.5745 240.698L88.5725 240.702L77.6118 263.908Z" fill="#FFED49" stroke="#FFED49" stroke-width="5.34513"/>
</svg>
